<svg xmlns="http://www.w3.org/2000/svg" width="975.079" height="481.519" viewBox="0 0 975.079 481.519"><defs><style>.a,.b{fill:none;stroke:#b0b4c4;stroke-linecap:round;stroke-linejoin:round;}.a{stroke-width:2.163px;}.b{stroke-width:2.261px;}</style></defs><g transform="translate(-31.765 -112.281)"><g transform="translate(32.847 289.177)"><line class="a" x2="84.163" transform="translate(40.046 46.193)"/><line class="a" x2="17.966" transform="translate(144.412 46.193)"/><line class="a" x2="150.672" transform="translate(24.804 22.504)"/><line class="a" x1="12.402" transform="translate(0 22.504)"/><line class="a" x2="50.023" transform="translate(24.804)"/><line class="a" x2="105.056" transform="translate(88.22)"/></g><g transform="translate(869.744 477.112)"><line class="a" x2="90.065" transform="translate(0 46.193)"/><line class="a" x2="13.027" transform="translate(104.714 46.193)"/><line class="a" x2="118.033" transform="translate(17.985 22.504)"/><line class="a" x1="8.993" transform="translate(0 22.504)"/><line class="a" x2="54.258"/><line class="a" x2="40.746" transform="translate(63.969)"/></g><path class="a" d="M133.208,198.04v-60.37H447.041v134.14" transform="translate(152.624 57.184)"/><path class="a" d="M249.436,113.131v75.585H457.548v34.39" transform="translate(297.96 38.818)"/><path class="a" d="M143.9,179.687a7.489,7.489,0,1,1-7.489-7.489A7.488,7.488,0,0,1,143.9,179.687Z" transform="translate(116.778 83.026)"/><circle class="a" cx="7.489" cy="7.489" r="7.489" transform="translate(503.201 136.971)"/><path class="a" d="M379.159,183.97a7.489,7.489,0,1,1-7.49-7.489A7.489,7.489,0,0,1,379.159,183.97Z" transform="translate(402.719 86.232)"/><path class="a" d="M323.4,222.589a7.489,7.489,0,1,1-7.489-7.489A7.489,7.489,0,0,1,323.4,222.589Z" transform="translate(334.943 115.136)"/><g transform="translate(141.799 487.706)"><line class="a" x1="17.719" y2="17.719"/><line class="a" x2="17.719" y2="17.719"/></g><g transform="translate(150.658 230.4)"><line class="a" x1="17.719" y2="17.719"/><line class="a" x2="17.719" y2="17.719"/></g><g transform="translate(927.31 431.254)"><line class="a" x1="17.719" y2="17.719"/><line class="a" x2="17.719" y2="17.719"/></g><path class="b" d="M193.614,106.95a23.015,23.015,0,0,0-14.839,5.4,31.018,31.018,0,0,0-60.024,4.567,18.484,18.484,0,1,0-7.5,36.093v.175h82.364a23.118,23.118,0,1,0,0-46.236Z" transform="translate(46.638 22.322)"/><path class="a" d="M403.795,172.349a16.716,16.716,0,0,1,10.779,3.923,22.534,22.534,0,0,1,43.606,3.317,13.429,13.429,0,1,1,5.45,26.221v.128H403.795a16.795,16.795,0,1,1,0-33.589Z" transform="translate(466.992 74.516)"/><path class="a" d="M469.466,353.25a14.025,14.025,0,0,0-9.041,3.291,18.9,18.9,0,0,0-36.57,2.782,11.262,11.262,0,1,0-4.57,21.99v.107h50.182a14.085,14.085,0,0,0,0-28.169Z" transform="translate(483.819 211.3)"/><path class="a" d="M61.442,337.046a16.724,16.724,0,0,1,10.781,3.923,22.534,22.534,0,0,1,43.606,3.317,13.428,13.428,0,1,1,5.448,26.221v.128H61.442a16.795,16.795,0,0,1,0-33.589Z" transform="translate(8.833 197.781)"/><line class="a" y1="44.316" transform="translate(352.036 225.886)"/><line class="a" y1="22.082" transform="translate(338.536 248.119)"/><line class="a" y1="32.41" transform="translate(557.575 248.044)"/><line class="a" y1="13.442" transform="translate(542.239 264.249)"/><line class="a" y1="22.467" transform="translate(528.636 255.224)"/><line class="a" y1="22.158" transform="translate(365.01 248.044)"/><line class="a" y1="9.912" transform="translate(735.685 266.457)"/><line class="a" y1="24.146" transform="translate(722.185 252.224)"/><line class="a" y1="17.247" transform="translate(748.659 259.123)"/></g></svg>