<svg xmlns="http://www.w3.org/2000/svg" width="28" height="28" viewBox="0 0 28 28"><defs><style>.a{fill:#214796;}.b{fill:none;}</style></defs><g transform="translate(3.514 1.737)"><path class="a" d="M371.716,8665.178a3.65,3.65,0,1,1-3.651,3.65,3.655,3.655,0,0,1,3.651-3.65m0-1.75a5.4,5.4,0,1,0,5.4,5.4,5.405,5.405,0,0,0-5.4-5.4Z" transform="translate(-361.229 -8663.428)"/><path class="a" d="M372.443,8675.455a8.748,8.748,0,0,1,8.737,8.738.3.3,0,0,1-.3.3H364a.3.3,0,0,1-.3-.3,8.748,8.748,0,0,1,8.738-8.738m0-1.75a10.5,10.5,0,0,0-10.487,10.488A2.047,2.047,0,0,0,364,8686.24h16.88a2.047,2.047,0,0,0,2.046-2.047,10.5,10.5,0,0,0-10.486-10.488Z" transform="translate(-361.956 -8661.715)"/></g><rect class="b" width="28" height="28"/></svg>