<svg xmlns="http://www.w3.org/2000/svg" width="51.588" height="32" viewBox="0 0 51.588 32"><defs><style>.a{fill:#b0b4c4;}</style></defs><g transform="translate(-513 -1419)"><g transform="translate(537.135 1426.297)"><g transform="translate(6.456 5.848)"><rect class="a" width="1.948" height="5.556" transform="translate(0 1.535) rotate(-51.994)"/></g><g transform="translate(0 0)"><path class="a" d="M391.783,332.416a4.112,4.112,0,1,1,.289-.01Q391.927,332.416,391.783,332.416Zm.009-6.27q-.076,0-.152.005a2.161,2.161,0,1,0,1.568.526h0A2.145,2.145,0,0,0,391.792,326.146Z" transform="translate(-387.68 -324.198)"/></g></g><g transform="translate(527.833 1429.72)"><g transform="translate(6.454 5.846)"><rect class="a" width="1.948" height="8.179" transform="translate(0 1.535) rotate(-51.993)"/></g><g transform="translate(0 0)"><path class="a" d="M315.375,360.528a4.108,4.108,0,1,1,2.7-7.2h0a4.107,4.107,0,0,1-2.7,7.2Zm0-6.266a2.16,2.16,0,1,0,1.418.53h0A2.151,2.151,0,0,0,315.379,354.261Z" transform="translate(-311.271 -352.314)"/></g></g><g transform="translate(513 1419)"><path class="a" d="M231.695,296.257a9.307,9.307,0,0,1-6.245-2.4l-4.984-4.179,1.251-1.493,5.026,4.215a7.378,7.378,0,1,0,.7-11.5l-.016.011L208.94,293.435a12.663,12.663,0,0,1-7.666,2.822,11.841,11.841,0,0,1,0-23.681,12,12,0,0,1,1.317.073,16.006,16.006,0,0,1,29.155,2.238l-1.835.654a14.057,14.057,0,0,0-25.893-1.405l-.319.659-.833-.143a9.893,9.893,0,1,0-1.591,19.658,10.7,10.7,0,0,0,6.529-2.456l.03-.021,18.489-12.526a9.327,9.327,0,1,1,5.373,16.951Z" transform="translate(-189.433 -264.257)"/></g></g></svg>