<svg xmlns="http://www.w3.org/2000/svg" width="27.999" height="28" viewBox="0 0 27.999 28"><defs><style>.a{fill:#214796;}.b{fill:none;}</style></defs><g transform="translate(2.046)"><path class="a" d="M2116.109,1828.449H2115v-7.911a9.753,9.753,0,0,0-8.525-9.673c0-.032.01-.063.01-.1v-.264a1.458,1.458,0,0,0-2.917,0v.264c0,.035.007.068.009.1a9.928,9.928,0,0,0-8.525,9.876v7.7h-1.106a.875.875,0,0,0,0,1.75h22.158a.875.875,0,0,0,0-1.75Zm-11.066-15.934a8.032,8.032,0,0,1,8.21,8.023v7.841h-16.446v-7.632a8.182,8.182,0,0,1,7.99-8.229c.083,0,.164,0,.245,0" transform="translate(-2093.076 -1809.048)"/><path class="a" d="M2106.579,1828.6h-5.522a.664.664,0,0,0-.646.818,3.5,3.5,0,0,0,6.814,0A.665.665,0,0,0,2106.579,1828.6Z" transform="translate(-2091.857 -1805.791)"/></g><rect class="b" width="27.999" height="27.999" transform="translate(0 0.001)"/></svg>