<svg id="Layer_1" data-name="Layer 1" xmlns="http://www.w3.org/2000/svg" viewBox="0 0 701.33402 106.81633"><title>vmware-logo</title><path d="M311.33211,104.44811l-30.707-85.50718a13.91776,13.91776,0,0,1-.98107-4.1102,7.43149,7.43149,0,0,1,7.61843-7.2262c3.91648,0,6.46746,2.53786,7.642,6.24781l25.4381,73.67891,25.62081-73.88306c1.167-3.5058,3.52429-6.04366,7.41721-6.04366h0.79273c4.118,0,6.65824,2.53786,7.82523,6.04366l25.42229,73.88306,25.84585-74.06362c0.98375-3.1369,3.11868-5.8631,7.234-5.8631a7.22249,7.22249,0,0,1,7.43543,7.03518,14.436,14.436,0,0,1-.976,4.1102l-30.90577,85.69819c-1.58278,4.47642-4.69878,6.82568-8.22548,6.82568h-0.5835c-3.9165,0-6.8597-2.34926-8.23325-6.82568L353.79665,31.79206l-25.44589,72.65605c-1.36551,4.47642-4.309,6.82568-8.20967,6.82568H319.7328c-3.70727,0-6.83372-2.34926-8.40069-6.82568" transform="translate(-10.04747 -5.44898)"/><path d="M535.17113,15.05846a7.6083,7.6083,0,0,1,7.43543-7.65,7.52908,7.52908,0,0,1,7.65005,7.65V32.412c7.44317-16.85657,23.944-24.80745,34.87983-24.80745a7.259,7.259,0,0,1,7.46677,7.63448,7.48785,7.48785,0,0,1-6.68449,7.642c-19.601,2.35194-35.66212,17.05268-35.66212,46.26314v34.35156a7.5433,7.5433,0,1,1-15.08548,0V15.05846" transform="translate(-10.04747 -5.44898)"/><path d="M641.00668,112.0901c-27.26658,0-49.53885-21.15242-49.53885-52.17848V59.50869c0-28.88362,20.16091-52.1683,47.62115-52.1683,29.36237,0,46.08793,24.23172,46.08793,50.81565a6.9433,6.9433,0,0,1-6.92266,6.9958H606.46434c2.09555,21.70967,17.25146,33.93282,34.93479,33.93282,12.28853,0,21.29629-4.8531,28.60366-11.63966a6.37837,6.37837,0,0,1,10.75263,4.67521A6.37733,6.37733,0,0,1,678.44528,96.95c-9.40265,9.11225-20.54535,15.1401-37.43859,15.1401m29.38055-58.00246C668.8516,35.84975,658.46761,19.956,638.69651,19.956c-17.28307,0-30.34584,14.5333-32.23216,34.13161h63.92289Z" transform="translate(-10.04747 -5.44898)"/><path d="M428.20826,80.68978V80.28953c0-21.29361,17.58634-32.63268,43.168-32.63268a107.12131,107.12131,0,0,1,31.09169,4.309V48.43672c0-18.15966-11.16868-27.54946-30.09991-27.54946-10.167,0-16.08474,1.29505-23.51776,4.60475a7.55263,7.55263,0,0,1-2.71816.59662A6.69015,6.69015,0,0,1,439.479,19.637a6.22525,6.22525,0,0,1,4.1102-6.26335c9.94436-4.317,17.45025-5.75326,30.33808-5.75326,14.25334,0,25.19725,3.69682,32.6091,11.12957,6.84416,6.83881,10.36818,16.608,10.36818,29.50087v55.74992a7.14606,7.14606,0,0,1-7.24977,7.41694,6.91278,6.91278,0,0,1-7.18681-7.03491V94.74165c-7.04295,9.19369-18.77959,17.3956-36.52561,17.3956-18.77155,0-37.73412-10.74245-37.73412-31.44747m74.443-7.81987V63.10076a105.47738,105.47738,0,0,0-29.7077-4.31166c-18.92855,0-29.49819,8.22039-29.49819,20.90917v0.3898c0,12.69681,11.72084,20.12153,25.40648,20.12153,18.54651,0,33.79941-11.33345,33.79941-27.33969" transform="translate(-10.04747 -5.44898)"/><path d="M37.63226,13.944A14.23851,14.23851,0,0,0,18.51,6.80136a13.983,13.983,0,0,0-7.00384,19.13537L43.5634,95.61288c5.04413,10.92811,10.36041,16.65243,20.32942,16.65243,10.65618,0,15.3014-6.23441,20.33773-16.65243,0,0,27.96364-60.88807,28.2436-61.51871a4.05215,4.05215,0,0,1,4.029-2.59787,4.45849,4.45849,0,0,1,4.42954,4.50777V95.558c0,9.17788,5.09233,16.70735,14.88506,16.70735,9.785,0,15.07741-7.52946,15.07741-16.70735V46.83813c0-9.39756,6.73164-15.49347,15.90953-15.49347,9.1752,0,15.28424,6.30782,15.28424,15.49347V95.558c0,9.17788,5.1068,16.70735,14.884,16.70735,9.78469,0,15.101-7.52946,15.101-16.70735V46.83813c0-9.39756,6.70807-15.49347,15.89372-15.49347,9.16208,0,15.292,6.30782,15.292,15.49347V95.558c0,9.17788,5.10171,16.70735,14.8864,16.70735,9.77719,0,15.08545-7.52946,15.08545-16.70735V40.10649c0-20.38327-16.3805-34.65751-36.10178-34.65751-19.6977,0-32.03338,13.628-32.03338,13.628-6.55643-8.503-15.59822-13.61519-30.89023-13.61519-16.13966,0-30.26733,13.61519-30.26733,13.61519-6.56181-8.503-17.7305-13.61519-26.97911-13.61519-14.3029,0-25.66287,6.29228-32.5933,22.13617L63.89282,75.86026,37.63226,13.944" transform="translate(-10.04747 -5.44898)"/><path d="M686.39106,19.98469V19.9011a12.4953,12.4953,0,1,1,24.99043-.0576v0.0576a12.49536,12.49536,0,1,1-24.99043.08359m22.59134-.08359V19.8644a10.11257,10.11257,0,1,0-20.22387.0367v0.06269a10.1126,10.1126,0,1,0,20.22387-.06269" transform="translate(-10.04747 -5.44898)"/><path d="M694.09842,14.95639a1.32885,1.32885,0,0,1,1.3422-1.33685h4.17292A4.73414,4.73414,0,0,1,703.148,14.8594a3.752,3.752,0,0,1,1.05447,2.75513v0.03911a3.708,3.708,0,0,1-2.41489,3.681l1.8392,2.25013a1.57461,1.57461,0,0,1,.43183,1.01509,1.24051,1.24051,0,0,1-1.26371,1.227A1.64606,1.64606,0,0,1,701.484,25.144l-2.5901-3.28076H696.767v2.63725a1.31006,1.31006,0,0,1-1.3264,1.3264,1.32343,1.32343,0,0,1-1.3422-1.3264V14.95639Zm5.37122,4.54447a1.73061,1.73061,0,0,0,2.01438-1.71111V17.75063c0-1.133-.76648-1.732-2.06153-1.732H696.767v3.48223h2.70262Z" transform="translate(-10.04747 -5.44898)"/></svg>