<svg xmlns="http://www.w3.org/2000/svg" width="38.512" height="20.5" viewBox="0 0 38.512 20.5">
  <g id="Group_117993" data-name="Group 117993" transform="translate(-418.663 -303.5)">
    <g id="chevron-forward-navigation-functional-outline" transform="translate(430.167 296.999)">
      <g id="Group_2774" data-name="Group 2774" transform="translate(6.497 6.501)">
        <path id="Path_2458" data-name="Path 2458" d="M1917.026,3475.3l-8.865-8.866a1.4,1.4,0,1,0-1.976,1.978l7.876,7.875-7.851,7.852a1.4,1.4,0,1,0,1.975,1.978l8.841-8.841A1.4,1.4,0,0,0,1917.026,3475.3Z" transform="translate(-1905.775 -3466.03)" fill="#767b87"/>
        <path id="Path_2459" data-name="Path 2459" d="M1921.776,3475.3l-8.865-8.866a1.4,1.4,0,1,0-1.976,1.978l7.876,7.875-7.851,7.852a1.4,1.4,0,1,0,1.975,1.978l8.841-8.841A1.4,1.4,0,0,0,1921.776,3475.3Z" transform="translate(-1901.673 -3466.03)" fill="#767b87"/>
      </g>
    </g>
    <g id="chevron-forward-navigation-functional-outline-2" data-name="chevron-forward-navigation-functional-outline" transform="translate(412.167 296.999)">
      <g id="Group_2774-2" data-name="Group 2774" transform="translate(6.497 6.501)">
        <path id="Path_2458-2" data-name="Path 2458" d="M1917.026,3475.3l-8.865-8.866a1.4,1.4,0,1,0-1.976,1.978l7.876,7.875-7.851,7.852a1.4,1.4,0,1,0,1.975,1.978l8.841-8.841A1.4,1.4,0,0,0,1917.026,3475.3Z" transform="translate(-1905.775 -3466.03)" fill="#767b87"/>
        <path id="Path_2459-2" data-name="Path 2459" d="M1921.776,3475.3l-8.865-8.866a1.4,1.4,0,1,0-1.976,1.978l7.876,7.875-7.851,7.852a1.4,1.4,0,1,0,1.975,1.978l8.841-8.841A1.4,1.4,0,0,0,1921.776,3475.3Z" transform="translate(-1901.673 -3466.03)" fill="#767b87"/>
      </g>
    </g>
  </g>
</svg>
