<svg id="settings-admin-support-functional-filled" xmlns="http://www.w3.org/2000/svg" width="24" height="24" viewBox="0 0 24 24">
  <g id="Group_2268" data-name="Group 2268" transform="translate(-1126.969 -8663.715)">
    <circle id="Ellipse_115" data-name="Ellipse 115" cx="2.874" cy="2.874" r="2.874" transform="translate(1136.095 8672.841)" fill="#f7714d"/>
    <path id="Path_2056" data-name="Path 2056" d="M1148.469,8677.781a1.991,1.991,0,0,0-.664-.6l-.677-.392a.645.645,0,0,1-.317-.605c.011-.172.011-.771,0-.943a.646.646,0,0,1,.316-.6l.679-.393a2,2,0,0,0,.666-.6,2.119,2.119,0,0,0,.1-2.262l-1.035-1.795a2.137,2.137,0,0,0-2.921-.783l-.641.37a.63.63,0,0,1-.659-.014,7.8,7.8,0,0,0-.862-.5.629.629,0,0,1-.339-.563v-.739a2.141,2.141,0,0,0-2.138-2.14h-2.029a2.141,2.141,0,0,0-2.138,2.14v.739a.629.629,0,0,1-.339.563,7.683,7.683,0,0,0-.862.5.63.63,0,0,1-.659.014l-.679-.392a2,2,0,0,0-.847-.275,2.111,2.111,0,0,0-2.015,1.044c-1.074,1.863-1.083,1.881-1.1,1.907a2.169,2.169,0,0,0,.843,2.809l.641.371a.646.646,0,0,1,.316.6c-.011.172-.011.771,0,.943a.646.646,0,0,1-.316.6l-.641.37a2.142,2.142,0,0,0-.783,2.922l1.035,1.793a2,2,0,0,0,.6.664,2.142,2.142,0,0,0,2.268.1l.677-.391a.63.63,0,0,1,.659.014,7.683,7.683,0,0,0,.862.5.629.629,0,0,1,.339.563v.74a2.141,2.141,0,0,0,2.138,2.139h2.029a2.141,2.141,0,0,0,2.138-2.139v-.74a.629.629,0,0,1,.339-.563,7.793,7.793,0,0,0,.862-.5.628.628,0,0,1,.659-.015l.677.391a2.1,2.1,0,0,0,2.864-.768l1.056-1.83A2.116,2.116,0,0,0,1148.469,8677.781Zm-9.5,2.307a4.373,4.373,0,1,1,4.373-4.373A4.378,4.378,0,0,1,1138.969,8680.088Z" fill="#f7714d"/>
  </g>
  <rect id="Rectangle_1063" data-name="Rectangle 1063" width="24" height="24" fill="none"/>
</svg>
