<svg id="settings-admin-support-functional-outline" xmlns="http://www.w3.org/2000/svg" width="24" height="24" viewBox="0 0 24 24">
  <g id="Group_2061" data-name="Group 2061" transform="translate(-1126.969 -8661.939)">
    <g id="Group_2059" data-name="Group 2059">
      <path id="Path_1875" data-name="Path 1875" d="M1139.976,8684.434h-2.029a2.14,2.14,0,0,1-2.138-2.139v-.739a.63.63,0,0,0-.339-.563,8.014,8.014,0,0,1-.862-.5.632.632,0,0,0-.659-.016l-.677.393a2.14,2.14,0,0,1-2.268-.106,2,2,0,0,1-.6-.663l-1.034-1.794a2.14,2.14,0,0,1,.782-2.921l.641-.371a.645.645,0,0,0,.316-.6c-.011-.172-.011-.772,0-.944a.646.646,0,0,0-.316-.6l-.641-.37a2.171,2.171,0,0,1-.843-2.81c.013-.025.022-.045,1.1-1.907a2.112,2.112,0,0,1,2.015-1.044,1.98,1.98,0,0,1,.847.274l.679.394a.632.632,0,0,0,.659-.016,8.014,8.014,0,0,1,.862-.5.629.629,0,0,0,.339-.562v-.74a2.14,2.14,0,0,1,2.138-2.139h2.029a2.14,2.14,0,0,1,2.138,2.139v.74a.629.629,0,0,0,.339.563,8.208,8.208,0,0,1,.862.5.632.632,0,0,0,.659.016l.641-.371a2.138,2.138,0,0,1,2.921.782l1.035,1.8a2.119,2.119,0,0,1-.1,2.262,2,2,0,0,1-.666.6l-.679.393a.646.646,0,0,0-.316.6c.011.172.011.772,0,.944a.645.645,0,0,0,.316.6l.678.393a1.99,1.99,0,0,1,.664.6,2.12,2.12,0,0,1,.1,2.266l-1.057,1.83a2.095,2.095,0,0,1-2.864.769l-.677-.393a.632.632,0,0,0-.659.016,8.014,8.014,0,0,1-.862.5.63.63,0,0,0-.339.563v.739A2.14,2.14,0,0,1,1139.976,8684.434Zm-5.7-5.544a2.1,2.1,0,0,1,1.169.356,6.413,6.413,0,0,0,.7.4,2.11,2.11,0,0,1,1.171,1.905v.739a.639.639,0,0,0,.638.64h2.029a.64.64,0,0,0,.639-.64v-.739a2.135,2.135,0,0,1,1.171-1.905,6.493,6.493,0,0,0,.7-.4,2.111,2.111,0,0,1,2.241-.066l.678.393a.611.611,0,0,0,.815-.22l1.056-1.83a.617.617,0,0,0-.043-.673.554.554,0,0,0-.174-.145h0l-.678-.392a2.138,2.138,0,0,1-1.062-1.994c.007-.11.007-.65,0-.761a2.136,2.136,0,0,1,1.062-1.993l.679-.393a.544.544,0,0,0,.174-.145.616.616,0,0,0,.043-.672l-1.036-1.8a.638.638,0,0,0-.871-.233l-.642.371a2.14,2.14,0,0,1-2.241-.065,6.268,6.268,0,0,0-.7-.4,2.137,2.137,0,0,1-1.171-1.905v-.74a.64.64,0,0,0-.639-.64h-2.029a.64.64,0,0,0-.638.64v.74a2.136,2.136,0,0,1-1.171,1.9,6.354,6.354,0,0,0-.7.405,2.14,2.14,0,0,1-2.241.065l-.679-.393a.548.548,0,0,0-.21-.079.621.621,0,0,0-.6.3s-.951,1.649-1.06,1.842a.666.666,0,0,0,.258.827l.641.371a2.132,2.132,0,0,1,1.062,1.993c-.006.11-.006.65,0,.761a2.133,2.133,0,0,1-1.062,1.994l-.641.37a.641.641,0,0,0-.234.874l1.035,1.794a.566.566,0,0,0,.147.178.621.621,0,0,0,.669.043l.677-.393A2.145,2.145,0,0,1,1134.271,8678.89Z" fill="#214796"/>
    </g>
    <g id="Group_2060" data-name="Group 2060">
      <path id="Path_1876" data-name="Path 1876" d="M1138.969,8678.312a4.373,4.373,0,1,1,4.373-4.372A4.378,4.378,0,0,1,1138.969,8678.312Zm0-7.246a2.874,2.874,0,1,0,2.874,2.874A2.878,2.878,0,0,0,1138.969,8671.065Z" fill="#214796"/>
    </g>
  </g>
  <rect id="Rectangle_989" data-name="Rectangle 989" width="24" height="24" fill="none"/>
</svg>
