<svg id="thumbnail-view-navigation-functional-filled" xmlns="http://www.w3.org/2000/svg" width="24" height="24" viewBox="0 0 24 24">
  <g id="Group_994" data-name="Group 994" transform="translate(-1509.299 -3081.125)">
    <path id="Path_963" data-name="Path 963" d="M1519.3,3084.115h-5.817a.4.4,0,0,0-.059,0,1.172,1.172,0,0,0-1.117,1.172v5.816a1.178,1.178,0,0,0,1.176,1.177h5.817a1.172,1.172,0,0,0,1.172-1.118.581.581,0,0,0,0-.059v-5.816A1.178,1.178,0,0,0,1519.3,3084.115Z" fill="#f7714d"/>
    <path id="Path_964" data-name="Path 964" d="M1529.119,3084.115H1523.3a.4.4,0,0,0-.059,0,1.172,1.172,0,0,0-1.117,1.172v5.816a1.178,1.178,0,0,0,1.176,1.177h5.816a1.173,1.173,0,0,0,1.173-1.118.58.58,0,0,0,0-.059v-5.816A1.178,1.178,0,0,0,1529.119,3084.115Z" fill="#f7714d"/>
    <path id="Path_965" data-name="Path 965" d="M1529.119,3093.968H1523.3a.4.4,0,0,0-.059,0,1.172,1.172,0,0,0-1.117,1.172v5.816a1.178,1.178,0,0,0,1.176,1.177h5.816a1.173,1.173,0,0,0,1.173-1.118.58.58,0,0,0,0-.059v-5.816A1.178,1.178,0,0,0,1529.119,3093.968Z" fill="#f7714d"/>
    <path id="Path_966" data-name="Path 966" d="M1519.3,3093.968h-5.817a.4.4,0,0,0-.059,0,1.172,1.172,0,0,0-1.117,1.172v5.816a1.178,1.178,0,0,0,1.176,1.177h5.817a1.172,1.172,0,0,0,1.172-1.118.581.581,0,0,0,0-.059v-5.816A1.178,1.178,0,0,0,1519.3,3093.968Z" fill="#f7714d"/>
  </g>
  <rect id="Rectangle_568" data-name="Rectangle 568" width="24" height="24" fill="none"/>
</svg>
