<svg id="thumbnail-view-navigation-functional-outline" xmlns="http://www.w3.org/2000/svg" width="24" height="24" viewBox="0 0 24 24">
  <g id="Group_935" data-name="Group 935" transform="translate(-1513.997 -3079.332)">
    <g id="Group_931" data-name="Group 931">
      <path id="Path_909" data-name="Path 909" d="M1523.67,3083.821v5.17H1518.5v-5.17h5.171m.323-1.5h-5.817c-.019,0-.039,0-.059,0A1.172,1.172,0,0,0,1517,3083.5v5.816a1.178,1.178,0,0,0,1.176,1.176h5.817a1.172,1.172,0,0,0,1.172-1.117c0-.02,0-.039,0-.059V3083.5a1.178,1.178,0,0,0-1.176-1.177Z" fill="#214796"/>
    </g>
    <g id="Group_932" data-name="Group 932">
      <path id="Path_910" data-name="Path 910" d="M1533.494,3083.821v5.17h-5.17v-5.17h5.17m.323-1.5H1528c-.02,0-.039,0-.059,0a1.172,1.172,0,0,0-1.117,1.173v5.816a1.178,1.178,0,0,0,1.176,1.176h5.816a1.172,1.172,0,0,0,1.173-1.117c0-.02,0-.039,0-.059V3083.5a1.178,1.178,0,0,0-1.177-1.177Z" fill="#214796"/>
    </g>
    <g id="Group_933" data-name="Group 933">
      <path id="Path_911" data-name="Path 911" d="M1533.494,3093.673v5.171h-5.17v-5.171h5.17m.323-1.5H1528c-.02,0-.039,0-.059,0a1.172,1.172,0,0,0-1.117,1.173v5.816a1.178,1.178,0,0,0,1.176,1.176h5.816a1.172,1.172,0,0,0,1.173-1.117c0-.02,0-.039,0-.059v-5.816a1.178,1.178,0,0,0-1.177-1.177Z" fill="#214796"/>
    </g>
    <g id="Group_934" data-name="Group 934">
      <path id="Path_912" data-name="Path 912" d="M1523.67,3093.673v5.171H1518.5v-5.171h5.171m.323-1.5h-5.817c-.019,0-.039,0-.059,0a1.172,1.172,0,0,0-1.117,1.173v5.816a1.178,1.178,0,0,0,1.176,1.176h5.817a1.172,1.172,0,0,0,1.172-1.117c0-.02,0-.039,0-.059v-5.816a1.178,1.178,0,0,0-1.176-1.177Z" fill="#214796"/>
    </g>
  </g>
  <rect id="Rectangle_549" data-name="Rectangle 549" width="24" height="24" fill="none"/>
</svg>
