<svg id="In_Progress" data-name="In Progress" xmlns="http://www.w3.org/2000/svg" width="50" height="50" viewBox="0 0 50 50">
  <g id="Group_2637" data-name="Group 2637" transform="translate(3.095 3.094)">
    <path id="Path_2338" data-name="Path 2338" d="M953.3,7076.382h-5.654l2.992-3.1a1.563,1.563,0,1,0-2.25-2.17l-5.544,5.75c-.023.024-.04.052-.061.077s-.04.046-.056.068-.035.04-.05.062l-.017.026c-.025.037-.044.079-.067.121l-.025.05c-.012.023-.029.046-.04.068l-.008.029a1.175,1.175,0,0,0-.044.142c-.012.04-.029.079-.038.118l0,.032a1.132,1.132,0,0,0-.017.143c0,.044-.012.09-.012.134v.029c0,.044.008.09.012.134a1.122,1.122,0,0,0,.017.145l0,.028c.008.041.025.081.038.121a1.261,1.261,0,0,0,.044.144l.008.025c.017.039.042.075.062.114s.044.088.071.132l.012.018a.925.925,0,0,0,.083.1l.008.011c.025.03.048.066.077.1l5.544,5.75a1.563,1.563,0,0,0,2.25-2.171l-2.992-3.1H953.3a6.385,6.385,0,0,1,6.379,6.379h0v0h0a6.386,6.386,0,0,1-6.379,6.379h-7.838a1.563,1.563,0,0,0,0,3.125H953.3a9.514,9.514,0,0,0,9.5-9.5v0h0A9.513,9.513,0,0,0,953.3,7076.382Z" transform="translate(-929.944 -7061.586)" fill="#d08000"/>
    <path id="Path_2339" data-name="Path 2339" d="M958.328,7066.29a21.9,21.9,0,1,0,21.906,21.906A21.9,21.9,0,0,0,958.328,7066.29Zm0,40.685a18.78,18.78,0,1,1,18.781-18.778A18.8,18.8,0,0,1,958.328,7106.975Z" transform="translate(-936.424 -7066.29)" fill="#d08000"/>
  </g>
  <rect id="Rectangle_1249" data-name="Rectangle 1249" width="50" height="50" fill="none"/>
</svg>
