<svg id="arrow-circle-right-navigation-functional-outline" xmlns="http://www.w3.org/2000/svg" width="50" height="50" viewBox="0 0 50 50">
  <g id="Group_2780" data-name="Group 2780">
    <g id="Group_2779" data-name="Group 2779" transform="translate(3.035 3.034)">
      <path id="Path_2464" data-name="Path 2464" d="M2289.553,3475.314h17.583l-6.054-6.052a1.563,1.563,0,0,1,2.21-2.21l8.719,8.719a1.533,1.533,0,0,1,.2.24c.025.038.042.077.064.116s.056.1.079.152a1.323,1.323,0,0,1,.048.157c.014.045.031.089.042.135a1.6,1.6,0,0,1,0,.612c-.011.046-.027.089-.042.133a1.469,1.469,0,0,1-.048.158c-.023.052-.052.1-.079.152s-.04.08-.064.117a1.537,1.537,0,0,1-.2.237l-8.719,8.721a1.563,1.563,0,0,1-2.21-2.21l6.054-6.052h-17.583a1.563,1.563,0,0,1,0-3.125Z" transform="translate(-2278.265 -3454.91)"/>
      <path id="Path_2465" data-name="Path 2465" d="M2305.286,3460.986a21.966,21.966,0,1,1-21.964,21.967A21.967,21.967,0,0,1,2305.286,3460.986Zm0,40.806a18.841,18.841,0,1,0-18.839-18.839A18.862,18.862,0,0,0,2305.286,3501.792Z" transform="translate(-2283.322 -3460.986)"/>
    </g>
    <rect id="Rectangle_1358" data-name="Rectangle 1358" width="50" height="50" fill="none"/>
  </g>
</svg>
