<svg id="Not_Initiated" data-name="Not Initiated" xmlns="http://www.w3.org/2000/svg" width="50" height="50" viewBox="0 0 50 50">
  <rect id="Rectangle_1241" data-name="Rectangle 1241" width="50" height="50" fill="none"/>
  <g id="Group_2621" data-name="Group 2621" transform="translate(2.679 2.677)">
    <g id="Group_2620" data-name="Group 2620" transform="translate(0.366 0.366)">
      <g id="Group_2618" data-name="Group 2618">
        <path id="Path_2330" data-name="Path 2330" d="M397.539,2740.706a18.832,18.832,0,1,1-18.832,18.832,18.854,18.854,0,0,1,18.832-18.832m0-3.123a21.956,21.956,0,1,0,21.957,21.955,21.956,21.956,0,0,0-21.957-21.955Z" transform="translate(-375.584 -2737.583)" fill="#767b87"/>
      </g>
      <g id="Group_2619" data-name="Group 2619" transform="translate(11.811 20.394)">
        <path id="Path_2331" data-name="Path 2331" d="M400.9,2752.127H383.76a1.562,1.562,0,1,1,0-3.123H400.9a1.562,1.562,0,0,1,0,3.123Z" transform="translate(-382.198 -2749.004)" fill="#767b87"/>
      </g>
    </g>
    <rect id="Rectangle_1242" data-name="Rectangle 1242" width="44.643" height="44.643" transform="translate(0)" fill="none"/>
  </g>
</svg>
