<svg xmlns="http://www.w3.org/2000/svg" width="24" height="24" viewBox="0 0 24 24">
  <g id="Group_118089" data-name="Group 118089" transform="translate(-164 -317)">
    <g id="Group_2642" data-name="Group 2642" transform="translate(-770.073 -8729.434)">
      <g id="Group_2638" data-name="Group 2638">
        <path id="Path_2341" data-name="Path 2341" d="M954.821,9048.934a.821.821,0,0,1,.819.82V9066.1c0,.032-.006.069-.008.111a.814.814,0,0,1-.811.789H938.392a.82.82,0,0,1-.819-.82v-16.428a.815.815,0,0,1,.8-.812c.038,0,.073-.006.1-.009h16.349m0-1.5H938.392c-.03,0-.059.009-.089.01a2.317,2.317,0,0,0-2.23,2.311v16.428a2.322,2.322,0,0,0,2.319,2.32h16.429a2.318,2.318,0,0,0,2.31-2.229c0-.031.009-.06.009-.091v-16.428a2.323,2.323,0,0,0-2.319-2.32Z" fill="#214796"/>
      </g>
      <g id="Group_2639" data-name="Group 2639">
        <path id="Path_2342" data-name="Path 2342" d="M942.107,9063.977a.75.75,0,0,1-.75-.75v-7.507a.75.75,0,0,1,1.5,0v7.507A.75.75,0,0,1,942.107,9063.977Z" fill="#214796"/>
      </g>
      <g id="Group_2640" data-name="Group 2640">
        <path id="Path_2343" data-name="Path 2343" d="M951.115,9063.977a.75.75,0,0,1-.75-.75v-6.014a.75.75,0,0,1,1.5,0v6.014A.75.75,0,0,1,951.115,9063.977Z" fill="#214796"/>
      </g>
      <g id="Group_2641" data-name="Group 2641">
        <path id="Path_2344" data-name="Path 2344" d="M946.611,9063.977a.75.75,0,0,1-.75-.75v-10.521a.75.75,0,0,1,1.5,0v10.521A.75.75,0,0,1,946.611,9063.977Z" fill="#214796"/>
      </g>
    </g>
    <rect id="Rectangle_17065" data-name="Rectangle 17065" width="24" height="24" transform="translate(164 317)" fill="none"/>
  </g>
</svg>
