<svg id="poll-admin-support-functional-filled" xmlns="http://www.w3.org/2000/svg" width="24" height="24" viewBox="0 0 24 24">
  <path id="Path_2345" data-name="Path 2345" d="M954.82,9049.21H938.392c-.031,0-.059.008-.09.009a2.318,2.318,0,0,0-2.23,2.311v16.429a2.322,2.322,0,0,0,2.32,2.319H954.82a2.319,2.319,0,0,0,2.311-2.23c0-.03.009-.059.009-.089v-16.429A2.322,2.322,0,0,0,954.82,9049.21ZM942.856,9065a.75.75,0,0,1-1.5,0V9057.5a.75.75,0,0,1,1.5,0Zm4.5,0a.75.75,0,0,1-1.5,0v-10.521a.75.75,0,0,1,1.5,0Zm4.505,0a.75.75,0,0,1-1.5,0v-6.014a.75.75,0,0,1,1.5,0Z" transform="translate(-934.605 -9047.743)" fill="#f7714d"/>
  <rect id="Rectangle_1252" data-name="Rectangle 1252" width="24" height="24" fill="none"/>
</svg>
