<svg id="survey-feedback-admin-support-functional-filled" xmlns="http://www.w3.org/2000/svg" width="24" height="24" viewBox="0 0 24 24">
  <path id="Path_2075" data-name="Path 2075" d="M954.524,8857.039H938.688a1.251,1.251,0,0,0-1.25,1.249v18.492a1.251,1.251,0,0,0,1.25,1.249h15.836a1.25,1.25,0,0,0,1.249-1.249v-18.492A1.25,1.25,0,0,0,954.524,8857.039Zm-9.6,15.253-2.191,2.192a.751.751,0,0,1-1.06,0l-.968-.969a.749.749,0,1,1,1.06-1.06l.438.438,1.661-1.661a.749.749,0,0,1,1.06,1.06Zm0-5.324-2.191,2.192a.751.751,0,0,1-1.06,0l-.968-.968a.75.75,0,0,1,1.06-1.061l.438.438,1.661-1.662a.749.749,0,0,1,1.06,1.06Zm0-5.324-2.191,2.192a.751.751,0,0,1-1.06,0l-.968-.968a.75.75,0,0,1,1.06-1.061l.438.438,1.661-1.662a.749.749,0,0,1,1.06,1.06Zm7.057,11.965h-4.663a.75.75,0,0,1,0-1.5h4.663a.75.75,0,0,1,0,1.5Zm0-5.324h-4.663a.75.75,0,0,1,0-1.5h4.663a.75.75,0,0,1,0,1.5Zm0-5.324h-4.663a.75.75,0,0,1,0-1.5h4.663a.75.75,0,0,1,0,1.5Z" transform="translate(-934.605 -8855.534)" fill="#f7714d"/>
  <rect id="Rectangle_1073" data-name="Rectangle 1073" width="24" height="24" fill="none"/>
</svg>
