<svg id="Success" xmlns="http://www.w3.org/2000/svg" width="24" height="24" viewBox="0 0 24 24">
  <rect id="Rectangle_592" data-name="Rectangle 592" width="24" height="24" fill="none"/>
  <g id="Group_1060" data-name="Group 1060" transform="translate(1.505 1.505)">
    <path id="Path_1005" data-name="Path 1005" d="M953.339,3666.021l-5.217,5.217-2.008-2.007a.75.75,0,0,0-1.06,1.06l2.538,2.537a.748.748,0,0,0,1.06,0l5.748-5.747a.75.75,0,0,0-1.061-1.06Z" transform="translate(-939.232 -3658.929)" fill="#1a873c"/>
    <path id="Path_1006" data-name="Path 1006" d="M949.727,3658.929a10.5,10.5,0,1,0,10.495,10.5A10.495,10.495,0,0,0,949.727,3658.929Zm0,19.492a9,9,0,1,1,9-9A9.006,9.006,0,0,1,949.727,3678.421Z" transform="translate(-939.232 -3658.929)" fill="#1a873c"/>
  </g>
</svg>
