<svg id="my-publications-category-functional-filled" xmlns="http://www.w3.org/2000/svg" width="24" height="24" viewBox="0 0 24 24">
  <g id="Group_2198" data-name="Group 2198" transform="translate(-1509.973 -7561.621)">
    <path id="Path_1997" data-name="Path 1997" d="M1530.82,7566.086a1.34,1.34,0,0,0-.976-.411h-.075v16.055a1,1,0,0,1-1,1h-13.432v.075a1.407,1.407,0,0,0,1.387,1.387h13.119a1.406,1.406,0,0,0,1.387-1.387v-15.743A1.341,1.341,0,0,0,1530.82,7566.086Z" fill="#f7714d"/>
    <path id="Path_1998" data-name="Path 1998" d="M1528.2,7563.463a1.34,1.34,0,0,0-.976-.412H1514.1a1.407,1.407,0,0,0-1.387,1.387v15.743a1.4,1.4,0,0,0,1.387,1.387h13.119a1.4,1.4,0,0,0,1.387-1.387v-15.743A1.338,1.338,0,0,0,1528.2,7563.463Zm-2.419,13.963a.711.711,0,0,1-.524.206h-9.184a.731.731,0,1,1,0-1.462h9.184a.743.743,0,0,1,.524,1.256Zm0-2.624a.711.711,0,0,1-.524.206h-9.184a.731.731,0,1,1,0-1.461h9.184a.742.742,0,0,1,.524,1.255Zm0-2.624a.713.713,0,0,1-.524.206h-9.184a.731.731,0,1,1,0-1.461h9.184a.742.742,0,0,1,.524,1.255Zm0-3.936a.714.714,0,0,1-.524.207h-6.56a.731.731,0,1,1,0-1.462h6.56a.742.742,0,0,1,.524,1.255Z" fill="#f7714d"/>
  </g>
  <rect id="Rectangle_1033" data-name="Rectangle 1033" width="24" height="24" fill="none"/>
</svg>
