<svg id="my-publications-category-functional-outline" xmlns="http://www.w3.org/2000/svg" width="24" height="24" viewBox="0 0 24 24">
  <g id="Group_1972" data-name="Group 1972" transform="translate(-1512.891 -7559.846)">
    <path id="Path_1801" data-name="Path 1801" d="M1528.17,7565.211h-6.559a.731.731,0,1,0,0,1.462h6.559a.731.731,0,1,0,0-1.462Z" fill="#214796"/>
    <path id="Path_1802" data-name="Path 1802" d="M1528.17,7569.147h-9.183a.731.731,0,1,0,0,1.462h9.183a.731.731,0,1,0,0-1.462Z" fill="#214796"/>
    <path id="Path_1803" data-name="Path 1803" d="M1533.737,7564.311a1.338,1.338,0,0,0-.975-.412h-1.237v-1.237a1.4,1.4,0,0,0-1.387-1.386h-13.119a1.4,1.4,0,0,0-1.387,1.386V7578.4a1.4,1.4,0,0,0,1.387,1.387h1.237v1.237a1.4,1.4,0,0,0,1.387,1.387h13.119a1.4,1.4,0,0,0,1.387-1.387v-15.743A1.335,1.335,0,0,0,1533.737,7564.311Zm-16.643,14.02v-15.594h12.969v15.594Zm15.593,2.623h-12.969v-1.162h10.42a1.4,1.4,0,0,0,1.387-1.387v-13.044h1.162Z" fill="#214796"/>
    <path id="Path_1804" data-name="Path 1804" d="M1528.17,7574.4h-9.183a.731.731,0,1,0,0,1.462h9.183a.731.731,0,1,0,0-1.462Z" fill="#214796"/>
    <path id="Path_1805" data-name="Path 1805" d="M1528.17,7571.771h-9.183a.731.731,0,1,0,0,1.462h9.183a.731.731,0,1,0,0-1.462Z" fill="#214796"/>
  </g>
  <rect id="Rectangle_941" data-name="Rectangle 941" width="24" height="24" fill="none"/>
</svg>
