<svg xmlns="http://www.w3.org/2000/svg" width="20.001" height="20" viewBox="0 0 20.001 20"><defs><style>.a{fill:none;}</style></defs><g transform="translate(0.001)"><path d="M381.095,1812.1h-3.809v-.1c0-1.628-1.025-2.952-2.286-2.952h-6.522c-1.23,0-2.23,1.264-2.277,2.837,0,.038-.009.075-.009.114v.1h-3.832a.625.625,0,1,0,0,1.249h1.882v12.573a3.123,3.123,0,0,0,3.121,3.123h8.752a3.122,3.122,0,0,0,3.121-3.123v-12.573h1.859a.625.625,0,1,0,0-1.249Zm-13.656-.057c0-.04.007-.08.008-.123.029-.958.565-1.625,1.03-1.625H375c.491,0,1.039.728,1.039,1.7v.1h-8.6Zm10.548,13.878a1.875,1.875,0,0,1-1.873,1.874h-8.752a1.875,1.875,0,0,1-1.872-1.874v-12.558h.7v.019h11.1v-.019h.7Z" transform="translate(-361.734 -1809.048)"/><path d="M369.733,1817.487a.624.624,0,0,0-.624.624v7.756a.624.624,0,1,0,1.248,0v-7.756A.624.624,0,0,0,369.733,1817.487Z" transform="translate(-362.966 -1810.454)"/><path d="M373.619,1817.487a.624.624,0,0,0-.624.624v7.756a.624.624,0,0,0,1.249,0v-7.756A.624.624,0,0,0,373.619,1817.487Z" transform="translate(-363.615 -1810.454)"/><path d="M377.5,1817.487a.624.624,0,0,0-.624.624v7.756a.624.624,0,0,0,1.249,0v-7.756A.625.625,0,0,0,377.5,1817.487Z" transform="translate(-364.264 -1810.454)"/><rect class="a" width="19.998" height="20" transform="translate(-0.001 0)"/></g></svg>