<svg xmlns="http://www.w3.org/2000/svg" width="20" height="20" viewBox="0 0 20 20"><defs><style>.a{fill:none;}</style></defs><g transform="translate(1.231 1.231)"><path d="M570.825,1811.847l1.631,1.631-9.473,9.473-1.631-1.631,9.473-9.473m0-1.3a1.023,1.023,0,0,0-.727.3l-10.233,10.233a.341.341,0,0,0,0,.483l2.876,2.877a.343.343,0,0,0,.483,0l10.233-10.233a1.025,1.025,0,0,0,0-1.45l-1.91-1.911a1.022,1.022,0,0,0-.723-.3Z" transform="translate(-556.221 -1810.544)"/><path d="M558.1,1826.676l1.211,1.211c-.773.361-1.491.666-2.133.923.257-.642.561-1.361.922-2.133m-.193-1.748a.526.526,0,0,0-.461.294,43.859,43.859,0,0,0-1.838,4.255c-.233.62-.044,1,.426,1a1.371,1.371,0,0,0,.477-.1,43.853,43.853,0,0,0,4.255-1.837.481.481,0,0,0,.177-.75l-2.747-2.747a.4.4,0,0,0-.288-.117Z" transform="translate(-555.512 -1812.941)"/></g><rect class="a" width="20" height="20"/></svg>