<svg xmlns="http://www.w3.org/2000/svg" width="11.745" height="17.018" viewBox="0 0 11.745 17.018"><path d="M369.441,4555.584a1.591,1.591,0,0,1-.676-.152,1.559,1.559,0,0,1-.9-1.425l.013-13.868a1.573,1.573,0,0,1,2.573-1.212l8.583,6.924a1.573,1.573,0,0,1,.008,2.427l-8.608,6.947A1.542,1.542,0,0,1,369.441,4555.584Zm.011-15.519a.082.082,0,0,0-.035.009.064.064,0,0,0-.042.066l-.014,13.868a.065.065,0,0,0,.042.067.063.063,0,0,0,.078-.01l8.608-6.947h0a.077.077,0,0,0-.008-.107l-8.586-6.927A.065.065,0,0,0,369.452,4540.065Z" transform="translate(-367.862 -4538.566)"/></svg>