<svg xmlns="http://www.w3.org/2000/svg" width="22.537" height="21" viewBox="0 0 22.537 21"><defs><style>.a{fill:#c71720;}</style></defs><path class="a" d="M2291.175,8855.258v1.5a1.3,1.3,0,0,1,1.166.681l8.449,15.445a1.226,1.226,0,0,1-.021,1.232,1.3,1.3,0,0,1-1.145.642h-16.89a1.3,1.3,0,0,1-1.145-.642,1.227,1.227,0,0,1-.021-1.232l8.44-15.444a1.3,1.3,0,0,1,1.167-.682v-1.5m0,0a2.8,2.8,0,0,0-2.483,1.461l-8.441,15.446a2.778,2.778,0,0,0,2.483,4.093h16.89a2.778,2.778,0,0,0,2.482-4.094l-8.449-15.446a2.8,2.8,0,0,0-2.482-1.46Z" transform="translate(-2279.91 -8855.258)"/><g transform="translate(10.217 7.053)"><g transform="translate(0.328)"><path class="a" d="M2291.205,8868.864a.75.75,0,0,1-.75-.75v-5.054a.75.75,0,0,1,1.5,0v5.054A.75.75,0,0,1,2291.205,8868.864Z" transform="translate(-2290.455 -8862.311)"/></g><g transform="translate(0 8.014)"><circle class="a" cx="1.077" cy="1.077" r="1.077"/></g></g></svg>