<svg xmlns="http://www.w3.org/2000/svg" width="20.99" height="20.991" viewBox="0 0 20.99 20.991"><defs><style>.a{fill:#1a873c;}</style></defs><path class="a" d="M953.339,3666.021l-5.217,5.217-2.008-2.007a.75.75,0,0,0-1.06,1.06l2.538,2.537a.748.748,0,0,0,1.06,0l5.748-5.747a.75.75,0,0,0-1.061-1.06Z" transform="translate(-939.232 -3658.929)"/><path class="a" d="M949.727,3658.929a10.5,10.5,0,1,0,10.495,10.5A10.495,10.495,0,0,0,949.727,3658.929Zm0,19.492a9,9,0,1,1,9-9A9.006,9.006,0,0,1,949.727,3678.421Z" transform="translate(-939.232 -3658.929)"/></svg>