<svg xmlns="http://www.w3.org/2000/svg" width="21.029" height="21.029" viewBox="0 0 21.029 21.029"><defs><style>.a{fill:#d08000;}</style></defs><path class="a" d="M947.487,7066.669A10.515,10.515,0,1,0,958,7077.183,10.515,10.515,0,0,0,947.487,7066.669Zm5.258,11.663h0a4.566,4.566,0,0,1-4.561,4.561h-3.763a.75.75,0,0,1,0-1.5h3.763a3.064,3.064,0,0,0,3.061-3.061h0a3.065,3.065,0,0,0-3.061-3.062h-2.715l1.437,1.49a.75.75,0,1,1-1.08,1.041l-2.662-2.76c-.013-.013-.022-.029-.034-.043l-.012-.014c-.011-.015-.024-.028-.035-.043l-.006-.01c-.013-.02-.023-.042-.034-.063s-.022-.036-.03-.054l0-.013c-.009-.022-.014-.045-.021-.068s-.014-.039-.018-.058l0-.014c0-.023-.005-.046-.007-.069a.477.477,0,0,1-.006-.065v-.013a.477.477,0,0,1,.006-.065c0-.023,0-.046.007-.069l0-.014c0-.019.012-.038.018-.057s.012-.046.021-.069l.005-.013c.006-.015.016-.028.023-.043l.007-.013c.011-.02.02-.041.033-.06l.007-.012c.008-.011.018-.021.027-.033l.023-.028c.011-.013.019-.026.03-.038l2.662-2.76a.75.75,0,0,1,1.08,1.041l-1.437,1.489h2.715a4.567,4.567,0,0,1,4.561,4.562Z" transform="translate(-936.972 -7066.669)"/></svg>